<?xml version="1.0" encoding="UTF-8" standalone="no"?>
<!-- Created with Inkscape (http://www.inkscape.org/) -->

<svg
   width="256cm"
   height="256cm"
   viewBox="0 0 2560 2559.9999"
   version="1.1"
   id="svg5"
   inkscape:version="1.1 (c68e22c387, 2021-05-23)"
   sodipodi:docname="logo.svg"
   inkscape:export-filename="C:\Users\50013934\OneDrive - Belfast Metropolitan College\web production\VR site\assets\images\logos\logo.png"
   inkscape:export-xdpi="2.54"
   inkscape:export-ydpi="2.54"
   xmlns:inkscape="http://www.inkscape.org/namespaces/inkscape"
   xmlns:sodipodi="http://sodipodi.sourceforge.net/DTD/sodipodi-0.dtd"
   xmlns="http://www.w3.org/2000/svg"
   xmlns:svg="http://www.w3.org/2000/svg">
  <sodipodi:namedview
     id="namedview7"
     pagecolor="#505050"
     bordercolor="#ffffff"
     borderopacity="1"
     inkscape:pageshadow="0"
     inkscape:pageopacity="0"
     inkscape:pagecheckerboard="1"
     inkscape:document-units="mm"
     showgrid="false"
     units="cm"
     inkscape:zoom="0.056568542"
     inkscape:cx="609.8796"
     inkscape:cy="5718.7261"
     inkscape:window-width="1920"
     inkscape:window-height="1017"
     inkscape:window-x="-8"
     inkscape:window-y="-8"
     inkscape:window-maximized="1"
     inkscape:current-layer="text4942" />
  <defs
     id="defs2">
    <rect
       x="525"
       y="6900"
       width="2025"
       height="1850"
       id="rect2734" />
    <pattern
       id="EMFhbasepattern"
       patternUnits="userSpaceOnUse"
       width="6"
       height="6"
       x="0"
       y="0" />
  </defs>
  <g
     inkscape:label="Layer 1"
     inkscape:groupmode="layer"
     id="layer1">
    <g
       aria-label="VR_Y_HYPER "
       id="text4942"
       style="font-size:264.583px;line-height:125%;font-family:Verdana;letter-spacing:0px;word-spacing:0px;stroke-width:0.264583;fill:#ffffff">
      <g
         id="g933"
         transform="translate(-16.2028)">
        <path
           d="M 435.88621,2036.3083 350.4797,2287.719 H 304.31403 L 220.8311,2036.3083 h 38.66376 l 54.24467,169.4665 15.38855,49.6282 15.77328,-49.6282 54.43703,-169.4665 z"
           id="path26337"
           style="fill:#ffffff;stroke-width:0.393947" />
        <path
           d="m 638.82283,2287.719 h -38.66376 l -37.50961,-80.4054 q -4.23185,-9.233 -8.65606,-15.1961 -4.42421,-6.1554 -9.61786,-9.6179 -5.00127,-3.6547 -11.1567,-5.1936 -5.96306,-1.5389 -13.46498,-1.5389 h -16.15799 v 111.9519 h -34.23955 v -251.4107 h 67.32495 q 21.92869,0 37.70197,4.809 15.77327,4.8089 25.77583,13.465 10.19492,8.6559 14.81149,20.9669 4.80892,12.1184 4.80892,26.9299 0,11.7337 -3.46242,22.3134 -3.46243,10.3872 -10.38727,19.0433 -6.7325,8.4637 -16.92742,14.8115 -10.00256,6.1556 -23.08283,9.2332 10.57963,3.6547 17.88919,12.8879 7.50193,9.0408 15.19621,24.2371 z m -54.82175,-182.3545 q 0,-20.1975 -12.69556,-30.2 -12.5032,-10.0026 -35.39368,-10.0026 h -32.31597 v 83.0981 h 27.6994 q 12.1185,0 21.73635,-2.6928 9.8102,-2.8855 16.54269,-8.2715 6.92486,-5.5783 10.57965,-13.4649 3.84712,-8.079 3.84712,-18.4663 z"
           id="path26339"
           style="fill:#ffffff;stroke-width:0.393947" />
        <path
           d="m 869.84351,2366.5852 h -216.5939 v -27.6994 h 216.5939 z"
           id="path26341"
           style="fill:#ffffff;stroke-width:0.393947" />
        <path
           d="m 1086.4375,2036.3083 -90.98489,161.5799 v 89.8308 h -34.6241 v -90.6003 l -90.985,-160.8104 h 41.3568 l 50.0127,91.9467 18.4664,36.9325 16.9274,-33.4701 50.58989,-95.4091 z"
           id="path26343"
           style="fill:#ffffff;stroke-width:0.393947" />
        <path
           d="m 1303.0315,2366.5852 h -216.594 v -27.6994 h 216.594 z"
           id="path26345"
           style="fill:#ffffff;stroke-width:0.393947" />
        <path
           d="m 1498.4662,2287.719 h -34.2396 v -115.4143 h -105.6039 v 115.4143 h -34.2396 v -251.4107 h 34.2396 v 106.3734 h 105.6039 v -106.3734 h 34.2396 z"
           id="path26347"
           style="fill:#ffffff;stroke-width:0.393947" />
        <path
           d="m 1736.2193,2036.3083 -90.9849,161.5799 v 89.8308 h -34.6241 v -90.6003 l -90.9849,-160.8104 h 41.3567 l 50.0129,91.9467 18.4663,36.9325 16.9274,-33.4701 50.5898,-95.4091 z"
           id="path26349"
           style="fill:#ffffff;stroke-width:0.393947" />
        <path
           d="m 1931.654,2113.2511 q 0,15.3886 -5.7706,30.5847 -5.7707,15.0039 -17.8892,26.9301 -12.1186,11.9261 -30.9695,19.4281 -18.851,7.3095 -45.0116,7.3095 h -31.1618 v 90.2155 h -34.2396 v -251.4107 h 70.7875 q 18.6586,0 35.7784,4.2319 17.1197,4.0394 30.0077,13.2726 13.0803,9.2332 20.7745,23.8523 7.6942,14.6191 7.6942,35.586 z m -35.586,1.5389 q 0,-24.2369 -15.9656,-37.1249 -15.7733,-12.8879 -44.242,-12.8879 h -35.0091 v 103.488 h 31.9313 q 30.3924,0 46.7427,-13.2726 16.5427,-13.2727 16.5427,-40.2026 z"
           id="path26351"
           style="fill:#ffffff;stroke-width:0.393947" />
        <path
           d="m 2134.3984,2287.719 h -142.9213 v -251.4107 h 142.9213 v 28.8536 h -108.6818 v 77.9046 h 104.4499 v 28.8535 h -104.4499 v 86.5606 h 108.6818 z"
           id="path26353"
           style="fill:#ffffff;stroke-width:0.393947" />
        <path
           d="m 2371.5745,2287.719 h -38.6638 l -37.5095,-80.4054 q -4.2319,-9.233 -8.6561,-15.1961 -4.4242,-6.1554 -9.6178,-9.6179 -5.0013,-3.6547 -11.1567,-5.1936 -5.9631,-1.5389 -13.4651,-1.5389 h -16.1579 v 111.9519 h -34.2396 v -251.4107 h 67.3249 q 21.9288,0 37.7021,4.809 15.7732,4.8089 25.7757,13.465 10.1951,8.6559 14.8115,20.9669 4.809,12.1184 4.809,26.9299 0,11.7337 -3.4624,22.3134 -3.4625,10.3872 -10.3872,19.0433 -6.7326,8.4637 -16.9275,14.8115 -10.0026,6.1556 -23.0828,9.2332 10.5797,3.6547 17.8891,12.8879 7.502,9.0408 15.1963,24.2371 z m -54.8217,-182.3545 q 0,-20.1975 -12.6955,-30.2 -12.5032,-10.0026 -35.3937,-10.0026 h -32.316 v 83.0981 h 27.6994 q 12.1185,0 21.7364,-2.6928 9.8101,-2.8855 16.5427,-8.2715 6.9249,-5.5783 10.5796,-13.4649 3.8471,-8.079 3.8471,-18.4663 z"
           id="path26355"
           style="fill:#ffffff;stroke-width:0.393947" />
      </g>
    </g>
    <g
       id="g266"
       transform="translate(-128.90588)">
      <path
         id="rect53"
         style="fill:#ffffff;stroke-width:0.999999"
         d="m 1000.2949,1500 c -1019.412276,1019.4123 -1019.412276,3305.5877 0,4325 777.4699,777.4699 2396.6787,628.9606 3298.5254,0 126.3315,-88.1054 55.68,-319.9773 159.6628,-433.5986 94.4073,-103.1583 239.4748,-179.1843 379.3118,-179.1983 139.8549,-0.014 284.9636,75.986 379.3962,179.1455 104.0121,113.6242 33.3574,345.537 159.7093,433.6514 901.8282,628.9109 2520.9555,777.439 3298.3945,0 1019.4123,-1019.4123 1019.4123,-3305.5877 0,-4325 -1809.0148,-1809.01485 -5865.9852,-1809.01485 -7675,0 z m 2220.0801,987.5 c 299.7687,0 618.882,132.1811 830.8505,344.1495 211.9684,211.9685 344.1495,531.0818 344.1495,830.8505 0,299.7687 -132.1811,618.882 -344.1495,830.8505 C 3839.257,4705.3189 3520.1437,4837.5 3220.375,4837.5 c -299.7687,0 -618.882,-132.1811 -830.8505,-344.1495 C 2177.5561,4281.382 2045.375,3962.2687 2045.375,3662.5 c 0,-299.7687 132.1811,-618.882 344.1495,-830.8505 C 2601.493,2619.6811 2920.6063,2487.5 3220.375,2487.5 Z m 3234.8398,0 c 299.7687,0 618.882,132.1811 830.8505,344.1495 211.9684,211.9685 344.1495,531.0818 344.1495,830.8505 0,299.7687 -132.1811,618.882 -344.1495,830.8505 -211.9685,211.9684 -531.0818,344.1495 -830.8505,344.1495 -299.7687,0 -618.882,-132.1811 -830.8505,-344.1495 -211.9684,-211.9685 -344.1495,-531.0818 -344.1495,-830.8505 0,-299.7687 132.1811,-618.882 344.1495,-830.8505 C 5836.3328,2619.6811 6155.4461,2487.5 6455.2148,2487.5 Z"
         transform="matrix(0.26458333,0,0,0.26458333,128.90588,0)"
         sodipodi:nodetypes="aaaaaaaaaaaaaaaaaaaaaaaaaaaa" />
    </g>
  </g>
</svg>
